<mxfile host="app.diagrams.net" agent="Mozilla/5.0 (Windows NT 10.0; Win64; x64) AppleWebKit/537.36 (KHTML, like Gecko) Chrome/141.0.0.0 Safari/537.36" version="28.2.8">
  <diagram name="Page-1" id="VDZa9jgrSAaiPJXVdEwi">
    <mxGraphModel dx="1577" dy="359" grid="1" gridSize="10" guides="1" tooltips="1" connect="1" arrows="1" fold="1" page="1" pageScale="1" pageWidth="850" pageHeight="1100" math="0" shadow="0">
      <root>
        <mxCell id="0" />
        <mxCell id="1" parent="0" />
        <mxCell id="vdor28YRsyYJnUGEkDTp-1" value="User" style="shape=umlActor;verticalLabelPosition=bottom;verticalAlign=top;html=1;" vertex="1" parent="1">
          <mxGeometry x="160" y="10" width="40" height="70" as="geometry" />
        </mxCell>
        <mxCell id="vdor28YRsyYJnUGEkDTp-2" value="Student" style="shape=umlActor;verticalLabelPosition=bottom;verticalAlign=top;html=1;" vertex="1" parent="1">
          <mxGeometry x="50" y="120" width="30" height="60" as="geometry" />
        </mxCell>
        <mxCell id="vdor28YRsyYJnUGEkDTp-3" value="Instructor" style="shape=umlActor;verticalLabelPosition=bottom;verticalAlign=top;html=1;" vertex="1" parent="1">
          <mxGeometry x="165" y="120" width="30" height="60" as="geometry" />
        </mxCell>
        <mxCell id="vdor28YRsyYJnUGEkDTp-4" value="Admin" style="shape=umlActor;verticalLabelPosition=bottom;verticalAlign=top;html=1;" vertex="1" parent="1">
          <mxGeometry x="280" y="120" width="30" height="60" as="geometry" />
        </mxCell>
        <mxCell id="vdor28YRsyYJnUGEkDTp-8" value="" style="endArrow=block;endSize=16;endFill=0;html=1;rounded=0;exitX=0.5;exitY=0;exitDx=0;exitDy=0;exitPerimeter=0;entryX=1;entryY=1;entryDx=0;entryDy=0;entryPerimeter=0;" edge="1" parent="1" source="vdor28YRsyYJnUGEkDTp-4" target="vdor28YRsyYJnUGEkDTp-1">
          <mxGeometry width="160" relative="1" as="geometry">
            <mxPoint x="310" y="160" as="sourcePoint" />
            <mxPoint x="470" y="160" as="targetPoint" />
          </mxGeometry>
        </mxCell>
        <mxCell id="vdor28YRsyYJnUGEkDTp-9" value="" style="endArrow=block;endSize=16;endFill=0;html=1;rounded=0;exitX=0.5;exitY=0;exitDx=0;exitDy=0;exitPerimeter=0;entryX=0;entryY=1;entryDx=0;entryDy=0;entryPerimeter=0;" edge="1" parent="1" source="vdor28YRsyYJnUGEkDTp-2" target="vdor28YRsyYJnUGEkDTp-1">
          <mxGeometry width="160" relative="1" as="geometry">
            <mxPoint x="240" y="160" as="sourcePoint" />
            <mxPoint x="400" y="160" as="targetPoint" />
          </mxGeometry>
        </mxCell>
        <mxCell id="vdor28YRsyYJnUGEkDTp-10" value="" style="endArrow=block;endSize=16;endFill=0;html=1;rounded=0;exitX=0.5;exitY=0;exitDx=0;exitDy=0;exitPerimeter=0;entryX=0.501;entryY=0.747;entryDx=0;entryDy=0;entryPerimeter=0;" edge="1" parent="1" source="vdor28YRsyYJnUGEkDTp-3" target="vdor28YRsyYJnUGEkDTp-1">
          <mxGeometry width="160" relative="1" as="geometry">
            <mxPoint x="230" y="210" as="sourcePoint" />
            <mxPoint x="390" y="210" as="targetPoint" />
          </mxGeometry>
        </mxCell>
        <mxCell id="vdor28YRsyYJnUGEkDTp-11" value="Authenticate" style="ellipse;whiteSpace=wrap;html=1;fontFamily=Helvetica;fontSize=11;fontColor=default;labelBackgroundColor=default;" vertex="1" parent="1">
          <mxGeometry x="-50" y="10" width="90" height="40" as="geometry" />
        </mxCell>
        <mxCell id="vdor28YRsyYJnUGEkDTp-12" value="Skill Forge System Student" style="whiteSpace=wrap;html=1;fontFamily=Helvetica;fontSize=9;fontColor=default;labelBackgroundColor=default;labelPosition=center;verticalLabelPosition=middle;align=center;verticalAlign=top;" vertex="1" parent="1">
          <mxGeometry x="-140" y="100" width="160" height="280" as="geometry" />
        </mxCell>
        <mxCell id="vdor28YRsyYJnUGEkDTp-18" value="&lt;font style=&quot;font-size: 9px;&quot;&gt;Browse Corses&lt;/font&gt;" style="ellipse;whiteSpace=wrap;html=1;strokeColor=default;align=center;verticalAlign=middle;fontFamily=Helvetica;fontSize=11;fontColor=default;labelBackgroundColor=default;fillColor=default;" vertex="1" parent="1">
          <mxGeometry x="-97.5" y="130" width="75" height="40" as="geometry" />
        </mxCell>
        <mxCell id="vdor28YRsyYJnUGEkDTp-21" value="&lt;font style=&quot;font-size: 9px;&quot;&gt;Enroll in course&lt;/font&gt;" style="ellipse;whiteSpace=wrap;html=1;strokeColor=default;align=center;verticalAlign=middle;fontFamily=Helvetica;fontSize=11;fontColor=default;labelBackgroundColor=default;fillColor=default;" vertex="1" parent="1">
          <mxGeometry x="-97.5" y="180" width="75" height="40" as="geometry" />
        </mxCell>
        <mxCell id="vdor28YRsyYJnUGEkDTp-22" value="&lt;font style=&quot;font-size: 9px;&quot;&gt;Complete lessons&lt;/font&gt;" style="ellipse;whiteSpace=wrap;html=1;strokeColor=default;align=center;verticalAlign=middle;fontFamily=Helvetica;fontSize=11;fontColor=default;labelBackgroundColor=default;fillColor=default;" vertex="1" parent="1">
          <mxGeometry x="-97.5" y="230" width="75" height="40" as="geometry" />
        </mxCell>
        <mxCell id="vdor28YRsyYJnUGEkDTp-23" value="&lt;font style=&quot;font-size: 9px;&quot;&gt;Take quiz&lt;/font&gt;" style="ellipse;whiteSpace=wrap;html=1;strokeColor=default;align=center;verticalAlign=middle;fontFamily=Helvetica;fontSize=11;fontColor=default;labelBackgroundColor=default;fillColor=default;" vertex="1" parent="1">
          <mxGeometry x="-97.5" y="280" width="75" height="40" as="geometry" />
        </mxCell>
        <mxCell id="vdor28YRsyYJnUGEkDTp-24" value="&lt;font style=&quot;font-size: 9px;&quot;&gt;Earn Certification&lt;/font&gt;" style="ellipse;whiteSpace=wrap;html=1;strokeColor=default;align=center;verticalAlign=middle;fontFamily=Helvetica;fontSize=11;fontColor=default;labelBackgroundColor=default;fillColor=default;" vertex="1" parent="1">
          <mxGeometry x="-97.5" y="330" width="75" height="40" as="geometry" />
        </mxCell>
        <mxCell id="vdor28YRsyYJnUGEkDTp-25" value="" style="endArrow=none;html=1;edgeStyle=orthogonalEdgeStyle;rounded=0;strokeColor=default;align=center;verticalAlign=middle;fontFamily=Helvetica;fontSize=11;fontColor=default;labelBackgroundColor=default;endSize=16;exitX=1;exitY=0.5;exitDx=0;exitDy=0;entryX=0;entryY=0.3333333333333333;entryDx=0;entryDy=0;entryPerimeter=0;" edge="1" parent="1" source="vdor28YRsyYJnUGEkDTp-18" target="vdor28YRsyYJnUGEkDTp-2">
          <mxGeometry relative="1" as="geometry">
            <mxPoint x="30" y="280" as="sourcePoint" />
            <mxPoint x="190" y="280" as="targetPoint" />
          </mxGeometry>
        </mxCell>
        <mxCell id="vdor28YRsyYJnUGEkDTp-26" value="" style="edgeLabel;resizable=0;html=1;align=left;verticalAlign=bottom;strokeColor=default;fontFamily=Helvetica;fontSize=11;fontColor=default;labelBackgroundColor=default;fillColor=default;" connectable="0" vertex="1" parent="vdor28YRsyYJnUGEkDTp-25">
          <mxGeometry x="-1" relative="1" as="geometry" />
        </mxCell>
        <mxCell id="vdor28YRsyYJnUGEkDTp-27" value="" style="edgeLabel;resizable=0;html=1;align=right;verticalAlign=bottom;strokeColor=default;fontFamily=Helvetica;fontSize=11;fontColor=default;labelBackgroundColor=default;fillColor=default;" connectable="0" vertex="1" parent="vdor28YRsyYJnUGEkDTp-25">
          <mxGeometry x="1" relative="1" as="geometry" />
        </mxCell>
        <mxCell id="vdor28YRsyYJnUGEkDTp-28" value="" style="endArrow=none;html=1;edgeStyle=orthogonalEdgeStyle;rounded=0;strokeColor=default;align=center;verticalAlign=middle;fontFamily=Helvetica;fontSize=11;fontColor=default;labelBackgroundColor=default;endSize=16;entryX=1;entryY=0.5;entryDx=0;entryDy=0;exitX=0;exitY=0.3333333333333333;exitDx=0;exitDy=0;exitPerimeter=0;" edge="1" parent="1" source="vdor28YRsyYJnUGEkDTp-2" target="vdor28YRsyYJnUGEkDTp-21">
          <mxGeometry relative="1" as="geometry">
            <mxPoint x="150" y="280" as="sourcePoint" />
            <mxPoint x="122" y="220" as="targetPoint" />
            <Array as="points">
              <mxPoint x="40" y="140" />
              <mxPoint x="40" y="200" />
            </Array>
          </mxGeometry>
        </mxCell>
        <mxCell id="vdor28YRsyYJnUGEkDTp-29" value="" style="edgeLabel;resizable=0;html=1;align=left;verticalAlign=bottom;strokeColor=default;fontFamily=Helvetica;fontSize=11;fontColor=default;labelBackgroundColor=default;fillColor=default;" connectable="0" vertex="1" parent="vdor28YRsyYJnUGEkDTp-28">
          <mxGeometry x="-1" relative="1" as="geometry" />
        </mxCell>
        <mxCell id="vdor28YRsyYJnUGEkDTp-30" value="" style="edgeLabel;resizable=0;html=1;align=right;verticalAlign=bottom;strokeColor=default;fontFamily=Helvetica;fontSize=11;fontColor=default;labelBackgroundColor=default;fillColor=default;" connectable="0" vertex="1" parent="vdor28YRsyYJnUGEkDTp-28">
          <mxGeometry x="1" relative="1" as="geometry" />
        </mxCell>
        <mxCell id="vdor28YRsyYJnUGEkDTp-31" value="" style="endArrow=none;html=1;edgeStyle=orthogonalEdgeStyle;rounded=0;strokeColor=default;align=center;verticalAlign=middle;fontFamily=Helvetica;fontSize=11;fontColor=default;labelBackgroundColor=default;endSize=16;entryX=1;entryY=0.5;entryDx=0;entryDy=0;" edge="1" parent="1" target="vdor28YRsyYJnUGEkDTp-22">
          <mxGeometry relative="1" as="geometry">
            <mxPoint x="40" y="200" as="sourcePoint" />
            <mxPoint x="112" y="260" as="targetPoint" />
            <Array as="points">
              <mxPoint x="40" y="250" />
            </Array>
          </mxGeometry>
        </mxCell>
        <mxCell id="vdor28YRsyYJnUGEkDTp-32" value="" style="edgeLabel;resizable=0;html=1;align=left;verticalAlign=bottom;strokeColor=default;fontFamily=Helvetica;fontSize=11;fontColor=default;labelBackgroundColor=default;fillColor=default;" connectable="0" vertex="1" parent="vdor28YRsyYJnUGEkDTp-31">
          <mxGeometry x="-1" relative="1" as="geometry" />
        </mxCell>
        <mxCell id="vdor28YRsyYJnUGEkDTp-33" value="" style="edgeLabel;resizable=0;html=1;align=right;verticalAlign=bottom;strokeColor=default;fontFamily=Helvetica;fontSize=11;fontColor=default;labelBackgroundColor=default;fillColor=default;" connectable="0" vertex="1" parent="vdor28YRsyYJnUGEkDTp-31">
          <mxGeometry x="1" relative="1" as="geometry" />
        </mxCell>
        <mxCell id="vdor28YRsyYJnUGEkDTp-34" value="" style="endArrow=none;html=1;edgeStyle=orthogonalEdgeStyle;rounded=0;strokeColor=default;align=center;verticalAlign=middle;fontFamily=Helvetica;fontSize=11;fontColor=default;labelBackgroundColor=default;endSize=16;entryX=1;entryY=0.5;entryDx=0;entryDy=0;" edge="1" parent="1" target="vdor28YRsyYJnUGEkDTp-23">
          <mxGeometry relative="1" as="geometry">
            <mxPoint x="40" y="250" as="sourcePoint" />
            <mxPoint x="142" y="290" as="targetPoint" />
            <Array as="points">
              <mxPoint x="40" y="300" />
            </Array>
          </mxGeometry>
        </mxCell>
        <mxCell id="vdor28YRsyYJnUGEkDTp-35" value="" style="edgeLabel;resizable=0;html=1;align=left;verticalAlign=bottom;strokeColor=default;fontFamily=Helvetica;fontSize=11;fontColor=default;labelBackgroundColor=default;fillColor=default;" connectable="0" vertex="1" parent="vdor28YRsyYJnUGEkDTp-34">
          <mxGeometry x="-1" relative="1" as="geometry" />
        </mxCell>
        <mxCell id="vdor28YRsyYJnUGEkDTp-36" value="" style="edgeLabel;resizable=0;html=1;align=right;verticalAlign=bottom;strokeColor=default;fontFamily=Helvetica;fontSize=11;fontColor=default;labelBackgroundColor=default;fillColor=default;" connectable="0" vertex="1" parent="vdor28YRsyYJnUGEkDTp-34">
          <mxGeometry x="1" relative="1" as="geometry" />
        </mxCell>
        <mxCell id="vdor28YRsyYJnUGEkDTp-37" value="" style="endArrow=none;html=1;edgeStyle=orthogonalEdgeStyle;rounded=0;strokeColor=default;align=center;verticalAlign=middle;fontFamily=Helvetica;fontSize=11;fontColor=default;labelBackgroundColor=default;endSize=16;entryX=1;entryY=0.5;entryDx=0;entryDy=0;" edge="1" parent="1" target="vdor28YRsyYJnUGEkDTp-24">
          <mxGeometry relative="1" as="geometry">
            <mxPoint x="40" y="300" as="sourcePoint" />
            <mxPoint x="162" y="320" as="targetPoint" />
            <Array as="points">
              <mxPoint x="40" y="350" />
            </Array>
          </mxGeometry>
        </mxCell>
        <mxCell id="vdor28YRsyYJnUGEkDTp-38" value="" style="edgeLabel;resizable=0;html=1;align=left;verticalAlign=bottom;strokeColor=default;fontFamily=Helvetica;fontSize=11;fontColor=default;labelBackgroundColor=default;fillColor=default;" connectable="0" vertex="1" parent="vdor28YRsyYJnUGEkDTp-37">
          <mxGeometry x="-1" relative="1" as="geometry" />
        </mxCell>
        <mxCell id="vdor28YRsyYJnUGEkDTp-39" value="" style="edgeLabel;resizable=0;html=1;align=right;verticalAlign=bottom;strokeColor=default;fontFamily=Helvetica;fontSize=11;fontColor=default;labelBackgroundColor=default;fillColor=default;" connectable="0" vertex="1" parent="vdor28YRsyYJnUGEkDTp-37">
          <mxGeometry x="1" relative="1" as="geometry" />
        </mxCell>
        <mxCell id="vdor28YRsyYJnUGEkDTp-40" value="" style="endArrow=classic;html=1;rounded=0;strokeColor=default;align=center;verticalAlign=middle;fontFamily=Helvetica;fontSize=11;fontColor=default;labelBackgroundColor=default;endSize=16;dashed=1;exitX=0;exitY=0.5;exitDx=0;exitDy=0;entryX=0;entryY=0.5;entryDx=0;entryDy=0;" edge="1" parent="1" source="vdor28YRsyYJnUGEkDTp-24" target="vdor28YRsyYJnUGEkDTp-22">
          <mxGeometry width="50" height="50" relative="1" as="geometry">
            <mxPoint x="90" y="330" as="sourcePoint" />
            <mxPoint x="-180" y="240" as="targetPoint" />
            <Array as="points">
              <mxPoint x="-180" y="350" />
              <mxPoint x="-180" y="300" />
              <mxPoint x="-180" y="250" />
            </Array>
          </mxGeometry>
        </mxCell>
        <mxCell id="vdor28YRsyYJnUGEkDTp-41" value="&amp;lt;&amp;lt;Include&amp;gt;&amp;gt;" style="edgeLabel;html=1;align=center;verticalAlign=middle;resizable=0;points=[];strokeColor=default;fontFamily=Helvetica;fontSize=11;fontColor=default;labelBackgroundColor=default;fillColor=default;" vertex="1" connectable="0" parent="vdor28YRsyYJnUGEkDTp-40">
          <mxGeometry x="-0.1433" y="1" relative="1" as="geometry">
            <mxPoint y="-19" as="offset" />
          </mxGeometry>
        </mxCell>
        <mxCell id="vdor28YRsyYJnUGEkDTp-42" value="" style="endArrow=classic;html=1;rounded=0;strokeColor=default;align=center;verticalAlign=middle;fontFamily=Helvetica;fontSize=11;fontColor=default;labelBackgroundColor=default;endSize=16;dashed=1;exitX=0;exitY=0.5;exitDx=0;exitDy=0;entryX=0;entryY=0;entryDx=0;entryDy=0;" edge="1" parent="1" source="vdor28YRsyYJnUGEkDTp-24" target="vdor28YRsyYJnUGEkDTp-23">
          <mxGeometry width="50" height="50" relative="1" as="geometry">
            <mxPoint x="-107.5" y="350" as="sourcePoint" />
            <mxPoint x="-97.5" y="290" as="targetPoint" />
            <Array as="points">
              <mxPoint x="-157.5" y="350" />
              <mxPoint x="-157" y="286" />
            </Array>
          </mxGeometry>
        </mxCell>
        <mxCell id="vdor28YRsyYJnUGEkDTp-43" value="&amp;lt;&amp;lt;Include&amp;gt;&amp;gt;" style="edgeLabel;html=1;align=center;verticalAlign=middle;resizable=0;points=[];strokeColor=default;fontFamily=Helvetica;fontSize=11;fontColor=default;labelBackgroundColor=default;fillColor=default;" vertex="1" connectable="0" parent="vdor28YRsyYJnUGEkDTp-42">
          <mxGeometry x="-0.1433" y="1" relative="1" as="geometry">
            <mxPoint as="offset" />
          </mxGeometry>
        </mxCell>
        <mxCell id="vdor28YRsyYJnUGEkDTp-44" value="" style="endArrow=none;html=1;edgeStyle=orthogonalEdgeStyle;rounded=0;strokeColor=default;align=center;verticalAlign=middle;fontFamily=Helvetica;fontSize=11;fontColor=default;labelBackgroundColor=default;endSize=16;exitX=1;exitY=0.5;exitDx=0;exitDy=0;entryX=0;entryY=0.3333333333333333;entryDx=0;entryDy=0;entryPerimeter=0;" edge="1" parent="1" source="vdor28YRsyYJnUGEkDTp-11" target="vdor28YRsyYJnUGEkDTp-1">
          <mxGeometry relative="1" as="geometry">
            <mxPoint x="40" y="29.5" as="sourcePoint" />
            <mxPoint x="150" y="30.5" as="targetPoint" />
          </mxGeometry>
        </mxCell>
        <mxCell id="vdor28YRsyYJnUGEkDTp-45" value="" style="edgeLabel;resizable=0;html=1;align=left;verticalAlign=bottom;strokeColor=default;fontFamily=Helvetica;fontSize=11;fontColor=default;labelBackgroundColor=default;fillColor=default;" connectable="0" vertex="1" parent="vdor28YRsyYJnUGEkDTp-44">
          <mxGeometry x="-1" relative="1" as="geometry" />
        </mxCell>
        <mxCell id="vdor28YRsyYJnUGEkDTp-46" value="" style="edgeLabel;resizable=0;html=1;align=right;verticalAlign=bottom;strokeColor=default;fontFamily=Helvetica;fontSize=11;fontColor=default;labelBackgroundColor=default;fillColor=default;" connectable="0" vertex="1" parent="vdor28YRsyYJnUGEkDTp-44">
          <mxGeometry x="1" relative="1" as="geometry" />
        </mxCell>
        <mxCell id="vdor28YRsyYJnUGEkDTp-47" value="" style="endArrow=classic;html=1;rounded=0;strokeColor=default;align=center;verticalAlign=middle;fontFamily=Helvetica;fontSize=11;fontColor=default;labelBackgroundColor=default;endSize=16;dashed=1;exitX=0;exitY=0.5;exitDx=0;exitDy=0;entryX=0;entryY=0.5;entryDx=0;entryDy=0;" edge="1" parent="1" source="vdor28YRsyYJnUGEkDTp-11" target="vdor28YRsyYJnUGEkDTp-21">
          <mxGeometry width="50" height="50" relative="1" as="geometry">
            <mxPoint x="-127" y="140" as="sourcePoint" />
            <mxPoint x="-127" y="40" as="targetPoint" />
            <Array as="points">
              <mxPoint x="-210" y="30" />
              <mxPoint x="-210" y="90" />
              <mxPoint x="-210" y="200" />
            </Array>
          </mxGeometry>
        </mxCell>
        <mxCell id="vdor28YRsyYJnUGEkDTp-48" value="&amp;lt;&amp;lt;Include&amp;gt;&amp;gt;" style="edgeLabel;html=1;align=center;verticalAlign=middle;resizable=0;points=[];strokeColor=default;fontFamily=Helvetica;fontSize=11;fontColor=default;labelBackgroundColor=default;fillColor=default;" vertex="1" connectable="0" parent="vdor28YRsyYJnUGEkDTp-47">
          <mxGeometry x="-0.1433" y="1" relative="1" as="geometry">
            <mxPoint x="9" y="11" as="offset" />
          </mxGeometry>
        </mxCell>
      </root>
    </mxGraphModel>
  </diagram>
</mxfile>
